<svg xmlns="http://www.w3.org/2000/svg" viewBox="0 0 100 100" fill="none">
  <!-- Top Petal -->
  <path d="M50 8 C65 -5, 80 20, 50 50 C20 20, 35 -5, 50 8 Z" fill="#fda4af"/>
  <!-- Right Petal -->
  <path d="M92 50 C105 35, 80 20, 50 50 C80 80, 105 65, 92 50 Z" fill="#f43f5e"/>
  <!-- Bottom Petal -->
  <path d="M50 92 C35 105, 20 80, 50 50 C80 80, 65 105, 50 92 Z" fill="#e11d48"/>
  <!-- Left Petal -->
  <path d="M8 50 C-5 65, 20 80, 50 50 C20 20, -5 35, 8 50 Z" fill="#f43f5e"/>
  <!-- Center -->
  <circle cx="50" cy="50" r="10" fill="#fde047"/>
  <circle cx="50" cy="50" r="4" fill="#fbbf24"/>
</svg>