<svg xmlns="http://www.w3.org/2000/svg" viewBox="0 0 100 100">
  <!-- Book Main Cover -->
  <path d="M30 15 h 45 a 8 8 0 0 1 8 8 v 54 a 8 8 0 0 1 -8 8 h -45 z" fill="#fbcfe8"/>
  <!-- Book Spine / Binding -->
  <path d="M22 15 h 15 v 70 h -15 a 5 5 0 0 1 -5 -5 v -60 a 5 5 0 0 1 5 -5 z" fill="#f43f5e"/>
  <!-- Decorative Pages Edge -->
  <path d="M75 18 h 5 v 64 h -5 z" fill="#ffffff" opacity="0.9"/>
  <!-- Bookmark Ribbon -->
  <path d="M55 15 v 25 l -5 -4 l -5 4 v -25 z" fill="#e11d48"/>
  <!-- Heart Logo -->
  <path d="M52 40 C 47 40, 45 44, 45 47 C 45 52, 52 58, 52 58 C 52 58, 59 52, 59 47 C 59 44, 57 40, 52 40 Z" fill="#ffffff"/>
</svg>